<mxfile host="app.diagrams.net" agent="Mozilla/5.0 (Windows NT 10.0; Win64; x64) AppleWebKit/537.36 (KHTML, like Gecko) Chrome/127.0.0.0 Safari/537.36" version="25.0.3">
  <diagram name="Page-1" id="zXK4JeHEwXU457iD-Ces">
    <mxGraphModel dx="1050" dy="522" grid="1" gridSize="10" guides="1" tooltips="1" connect="1" arrows="1" fold="1" page="1" pageScale="1" pageWidth="850" pageHeight="1100" math="0" shadow="0">
      <root>
        <mxCell id="0" />
        <mxCell id="1" parent="0" />
        <mxCell id="P8jR3Gm1PVBCKN8UqkDq-1" value="" style="rounded=0;whiteSpace=wrap;html=1;glass=0;" vertex="1" parent="1">
          <mxGeometry x="50" y="40" width="750" height="440" as="geometry" />
        </mxCell>
        <mxCell id="P8jR3Gm1PVBCKN8UqkDq-3" value="" style="rounded=1;whiteSpace=wrap;html=1;" vertex="1" parent="1">
          <mxGeometry x="280" y="50" width="320" height="420" as="geometry" />
        </mxCell>
        <mxCell id="P8jR3Gm1PVBCKN8UqkDq-13" style="edgeStyle=orthogonalEdgeStyle;rounded=0;orthogonalLoop=1;jettySize=auto;html=1;exitX=0.5;exitY=0.5;exitDx=0;exitDy=0;exitPerimeter=0;entryX=0;entryY=0.5;entryDx=0;entryDy=0;strokeWidth=3;" edge="1" parent="1" source="P8jR3Gm1PVBCKN8UqkDq-2" target="P8jR3Gm1PVBCKN8UqkDq-6">
          <mxGeometry relative="1" as="geometry">
            <Array as="points">
              <mxPoint x="220" y="280" />
              <mxPoint x="220" y="85" />
            </Array>
          </mxGeometry>
        </mxCell>
        <mxCell id="P8jR3Gm1PVBCKN8UqkDq-14" style="edgeStyle=orthogonalEdgeStyle;rounded=0;orthogonalLoop=1;jettySize=auto;html=1;exitX=0.5;exitY=0.5;exitDx=0;exitDy=0;exitPerimeter=0;entryX=0;entryY=0.5;entryDx=0;entryDy=0;strokeWidth=3;" edge="1" parent="1" source="P8jR3Gm1PVBCKN8UqkDq-2" target="P8jR3Gm1PVBCKN8UqkDq-7">
          <mxGeometry relative="1" as="geometry">
            <Array as="points">
              <mxPoint x="220" y="280" />
              <mxPoint x="220" y="145" />
            </Array>
          </mxGeometry>
        </mxCell>
        <mxCell id="P8jR3Gm1PVBCKN8UqkDq-15" style="edgeStyle=orthogonalEdgeStyle;rounded=0;orthogonalLoop=1;jettySize=auto;html=1;exitX=0.5;exitY=0.5;exitDx=0;exitDy=0;exitPerimeter=0;entryX=0;entryY=0.5;entryDx=0;entryDy=0;strokeWidth=3;" edge="1" parent="1" source="P8jR3Gm1PVBCKN8UqkDq-2" target="P8jR3Gm1PVBCKN8UqkDq-4">
          <mxGeometry relative="1" as="geometry" />
        </mxCell>
        <mxCell id="P8jR3Gm1PVBCKN8UqkDq-16" style="edgeStyle=orthogonalEdgeStyle;rounded=0;orthogonalLoop=1;jettySize=auto;html=1;exitX=0.5;exitY=0.5;exitDx=0;exitDy=0;exitPerimeter=0;entryX=0;entryY=0.5;entryDx=0;entryDy=0;strokeWidth=3;" edge="1" parent="1" source="P8jR3Gm1PVBCKN8UqkDq-2" target="P8jR3Gm1PVBCKN8UqkDq-5">
          <mxGeometry relative="1" as="geometry" />
        </mxCell>
        <mxCell id="P8jR3Gm1PVBCKN8UqkDq-17" style="edgeStyle=orthogonalEdgeStyle;rounded=0;orthogonalLoop=1;jettySize=auto;html=1;exitX=0.5;exitY=0.5;exitDx=0;exitDy=0;exitPerimeter=0;entryX=0;entryY=0.5;entryDx=0;entryDy=0;strokeWidth=3;" edge="1" parent="1" source="P8jR3Gm1PVBCKN8UqkDq-2" target="P8jR3Gm1PVBCKN8UqkDq-8">
          <mxGeometry relative="1" as="geometry" />
        </mxCell>
        <mxCell id="P8jR3Gm1PVBCKN8UqkDq-18" style="edgeStyle=orthogonalEdgeStyle;rounded=0;orthogonalLoop=1;jettySize=auto;html=1;exitX=0.5;exitY=0.5;exitDx=0;exitDy=0;exitPerimeter=0;entryX=0;entryY=0.5;entryDx=0;entryDy=0;strokeWidth=3;" edge="1" parent="1" source="P8jR3Gm1PVBCKN8UqkDq-2" target="P8jR3Gm1PVBCKN8UqkDq-9">
          <mxGeometry relative="1" as="geometry" />
        </mxCell>
        <mxCell id="P8jR3Gm1PVBCKN8UqkDq-2" value="User" style="shape=umlActor;verticalLabelPosition=bottom;verticalAlign=top;html=1;outlineConnect=0;" vertex="1" parent="1">
          <mxGeometry x="120" y="250" width="30" height="60" as="geometry" />
        </mxCell>
        <mxCell id="P8jR3Gm1PVBCKN8UqkDq-4" value="Mencari Produk" style="rounded=1;whiteSpace=wrap;html=1;" vertex="1" parent="1">
          <mxGeometry x="290" y="190" width="120" height="50" as="geometry" />
        </mxCell>
        <mxCell id="P8jR3Gm1PVBCKN8UqkDq-5" value="Menambahkan Produk ke Keranjang" style="rounded=1;whiteSpace=wrap;html=1;" vertex="1" parent="1">
          <mxGeometry x="290" y="255" width="120" height="50" as="geometry" />
        </mxCell>
        <mxCell id="P8jR3Gm1PVBCKN8UqkDq-6" value="Login" style="rounded=1;whiteSpace=wrap;html=1;" vertex="1" parent="1">
          <mxGeometry x="370" y="60" width="120" height="50" as="geometry" />
        </mxCell>
        <mxCell id="P8jR3Gm1PVBCKN8UqkDq-7" value="Register" style="rounded=1;whiteSpace=wrap;html=1;" vertex="1" parent="1">
          <mxGeometry x="370" y="120" width="120" height="50" as="geometry" />
        </mxCell>
        <mxCell id="P8jR3Gm1PVBCKN8UqkDq-8" value="Membuat Pesanan" style="rounded=1;whiteSpace=wrap;html=1;" vertex="1" parent="1">
          <mxGeometry x="290" y="320" width="120" height="50" as="geometry" />
        </mxCell>
        <mxCell id="P8jR3Gm1PVBCKN8UqkDq-9" value="Membayar Produk" style="rounded=1;whiteSpace=wrap;html=1;" vertex="1" parent="1">
          <mxGeometry x="290" y="390" width="120" height="50" as="geometry" />
        </mxCell>
        <mxCell id="P8jR3Gm1PVBCKN8UqkDq-10" value="Mengawasi Jual-Beli" style="rounded=1;whiteSpace=wrap;html=1;" vertex="1" parent="1">
          <mxGeometry x="440" y="190" width="120" height="50" as="geometry" />
        </mxCell>
        <mxCell id="P8jR3Gm1PVBCKN8UqkDq-11" value="Manajemen Produk yang Dijual" style="rounded=1;whiteSpace=wrap;html=1;" vertex="1" parent="1">
          <mxGeometry x="440" y="255" width="120" height="50" as="geometry" />
        </mxCell>
        <mxCell id="P8jR3Gm1PVBCKN8UqkDq-12" value="Melihat analisis penjualan" style="rounded=1;whiteSpace=wrap;html=1;" vertex="1" parent="1">
          <mxGeometry x="440" y="320" width="120" height="50" as="geometry" />
        </mxCell>
        <mxCell id="P8jR3Gm1PVBCKN8UqkDq-21" style="edgeStyle=orthogonalEdgeStyle;rounded=0;orthogonalLoop=1;jettySize=auto;html=1;exitX=0.5;exitY=0.5;exitDx=0;exitDy=0;exitPerimeter=0;entryX=1;entryY=0.5;entryDx=0;entryDy=0;strokeWidth=3;" edge="1" parent="1" source="P8jR3Gm1PVBCKN8UqkDq-20" target="P8jR3Gm1PVBCKN8UqkDq-6">
          <mxGeometry relative="1" as="geometry">
            <Array as="points">
              <mxPoint x="650" y="150" />
              <mxPoint x="650" y="85" />
            </Array>
          </mxGeometry>
        </mxCell>
        <mxCell id="P8jR3Gm1PVBCKN8UqkDq-22" style="edgeStyle=orthogonalEdgeStyle;rounded=0;orthogonalLoop=1;jettySize=auto;html=1;exitX=0.5;exitY=0.5;exitDx=0;exitDy=0;exitPerimeter=0;entryX=1;entryY=0.5;entryDx=0;entryDy=0;strokeWidth=3;" edge="1" parent="1" source="P8jR3Gm1PVBCKN8UqkDq-20" target="P8jR3Gm1PVBCKN8UqkDq-7">
          <mxGeometry relative="1" as="geometry">
            <Array as="points">
              <mxPoint x="650" y="150" />
              <mxPoint x="650" y="145" />
            </Array>
          </mxGeometry>
        </mxCell>
        <mxCell id="P8jR3Gm1PVBCKN8UqkDq-23" style="edgeStyle=orthogonalEdgeStyle;rounded=0;orthogonalLoop=1;jettySize=auto;html=1;exitX=0.5;exitY=0.5;exitDx=0;exitDy=0;exitPerimeter=0;entryX=1;entryY=0.5;entryDx=0;entryDy=0;strokeWidth=3;" edge="1" parent="1" source="P8jR3Gm1PVBCKN8UqkDq-20" target="P8jR3Gm1PVBCKN8UqkDq-10">
          <mxGeometry relative="1" as="geometry">
            <Array as="points">
              <mxPoint x="650" y="150" />
              <mxPoint x="650" y="215" />
            </Array>
          </mxGeometry>
        </mxCell>
        <mxCell id="P8jR3Gm1PVBCKN8UqkDq-20" value="Admin" style="shape=umlActor;verticalLabelPosition=bottom;verticalAlign=top;html=1;outlineConnect=0;" vertex="1" parent="1">
          <mxGeometry x="710" y="120" width="30" height="60" as="geometry" />
        </mxCell>
        <mxCell id="P8jR3Gm1PVBCKN8UqkDq-25" style="edgeStyle=orthogonalEdgeStyle;rounded=0;orthogonalLoop=1;jettySize=auto;html=1;exitX=0.5;exitY=0.5;exitDx=0;exitDy=0;exitPerimeter=0;entryX=1;entryY=0.5;entryDx=0;entryDy=0;strokeWidth=3;fillColor=#0050ef;strokeColor=#001DBC;" edge="1" parent="1" source="P8jR3Gm1PVBCKN8UqkDq-24" target="P8jR3Gm1PVBCKN8UqkDq-12">
          <mxGeometry relative="1" as="geometry" />
        </mxCell>
        <mxCell id="P8jR3Gm1PVBCKN8UqkDq-26" style="edgeStyle=orthogonalEdgeStyle;rounded=0;orthogonalLoop=1;jettySize=auto;html=1;exitX=0.5;exitY=0.5;exitDx=0;exitDy=0;exitPerimeter=0;entryX=1;entryY=0.5;entryDx=0;entryDy=0;fillColor=#0050ef;strokeColor=#001DBC;strokeWidth=3;" edge="1" parent="1" source="P8jR3Gm1PVBCKN8UqkDq-24" target="P8jR3Gm1PVBCKN8UqkDq-11">
          <mxGeometry relative="1" as="geometry" />
        </mxCell>
        <mxCell id="P8jR3Gm1PVBCKN8UqkDq-27" style="edgeStyle=orthogonalEdgeStyle;rounded=0;orthogonalLoop=1;jettySize=auto;html=1;exitX=0.5;exitY=0.5;exitDx=0;exitDy=0;exitPerimeter=0;entryX=1;entryY=0.5;entryDx=0;entryDy=0;strokeWidth=3;fillColor=#0050ef;strokeColor=#001DBC;" edge="1" parent="1" source="P8jR3Gm1PVBCKN8UqkDq-24" target="P8jR3Gm1PVBCKN8UqkDq-7">
          <mxGeometry relative="1" as="geometry">
            <Array as="points">
              <mxPoint x="680" y="300" />
              <mxPoint x="680" y="160" />
              <mxPoint x="490" y="160" />
            </Array>
          </mxGeometry>
        </mxCell>
        <mxCell id="P8jR3Gm1PVBCKN8UqkDq-28" style="edgeStyle=orthogonalEdgeStyle;rounded=0;orthogonalLoop=1;jettySize=auto;html=1;exitX=0.5;exitY=0.5;exitDx=0;exitDy=0;exitPerimeter=0;entryX=1;entryY=0.5;entryDx=0;entryDy=0;fillColor=#0050ef;strokeColor=#001DBC;strokeWidth=3;" edge="1" parent="1" source="P8jR3Gm1PVBCKN8UqkDq-24" target="P8jR3Gm1PVBCKN8UqkDq-6">
          <mxGeometry relative="1" as="geometry">
            <Array as="points">
              <mxPoint x="680" y="300" />
              <mxPoint x="680" y="70" />
              <mxPoint x="490" y="70" />
            </Array>
          </mxGeometry>
        </mxCell>
        <mxCell id="P8jR3Gm1PVBCKN8UqkDq-24" value="Penjual" style="shape=umlActor;verticalLabelPosition=bottom;verticalAlign=top;html=1;outlineConnect=0;" vertex="1" parent="1">
          <mxGeometry x="710" y="270" width="30" height="60" as="geometry" />
        </mxCell>
        <mxCell id="P8jR3Gm1PVBCKN8UqkDq-29" value="Use Case&amp;nbsp;&lt;div&gt;E-Commerce&lt;/div&gt;" style="text;strokeColor=none;fillColor=none;html=1;fontSize=24;fontStyle=1;verticalAlign=middle;align=left;" vertex="1" parent="1">
          <mxGeometry x="60" y="50" width="100" height="40" as="geometry" />
        </mxCell>
      </root>
    </mxGraphModel>
  </diagram>
</mxfile>
